HIERARCHY
ROOT Hips
{
	OFFSET -0.001795 -0.223333 0.028219
	CHANNELS 6 Xposition Yposition Zposition Zrotation Yrotation Xrotation
	JOINT LeftUpLeg
	{
		OFFSET 0.069520 -0.091406 -0.006815
		CHANNELS 3 Zrotation Yrotation Xrotation
		JOINT LeftLeg
		{
			OFFSET 0.034277 -0.375199 -0.004496
			CHANNELS 3 Zrotation Yrotation Xrotation
			JOINT LeftFoot
			{
				OFFSET -0.013596 -0.397961 -0.043693
				CHANNELS 3 Zrotation Yrotation Xrotation
				JOINT LeftToe
				{
					OFFSET 0.026358 -0.055791 0.119288
					CHANNELS 3 Zrotation Yrotation Xrotation
					End Site
					{
						OFFSET 0.000000 0.000000 0.000000
					}
				}
			}
		}
	}
	JOINT RightUpLeg
	{
		OFFSET -0.067670 -0.090522 -0.004320
		CHANNELS 3 Zrotation Yrotation Xrotation
		JOINT RightLeg
		{
			OFFSET -0.038290 -0.382569 -0.008850
			CHANNELS 3 Zrotation Yrotation Xrotation
			JOINT RightFoot
			{
				OFFSET 0.015774 -0.398415 -0.042312
				CHANNELS 3 Zrotation Yrotation Xrotation
				JOINT RightToe
				{
					OFFSET -0.025372 -0.048144 0.123348
					CHANNELS 3 Zrotation Yrotation Xrotation
					End Site
					{
						OFFSET 0.000000 0.000000 0.000000
					}
				}
			}
		}
	}
	JOINT Spine
	{
		OFFSET -0.002533 0.108963 -0.026696
		CHANNELS 3 Zrotation Yrotation Xrotation
		JOINT Spine1
		{
			OFFSET 0.005487 0.135180 0.001092
			CHANNELS 3 Zrotation Yrotation Xrotation
			JOINT Spine2
			{
				OFFSET 0.001457 0.052922 0.025425
				CHANNELS 3 Zrotation Yrotation Xrotation
				JOINT Neck
				{
					OFFSET -0.002778 0.213870 -0.042857
					CHANNELS 3 Zrotation Yrotation Xrotation
					JOINT Head
					{
						OFFSET 0.005152 0.064970 0.051349
						CHANNELS 3 Zrotation Yrotation Xrotation
						End Site
						{
							OFFSET 0.000000 0.000000 0.000000
						}
					}
				}
				JOINT LeftShoulder
				{
					OFFSET 0.078845 0.121749 -0.034090
					CHANNELS 3 Zrotation Yrotation Xrotation
					JOINT LeftArm
					{
						OFFSET 0.090977 0.030469 -0.008868
						CHANNELS 3 Zrotation Yrotation Xrotation
						JOINT LeftForeArm
						{
							OFFSET 0.259612 -0.012772 -0.027456
							CHANNELS 3 Zrotation Yrotation Xrotation
							JOINT LeftHand
							{
								OFFSET 0.249234 0.008986 -0.001171
								CHANNELS 3 Zrotation Yrotation Xrotation
								End Site
								{
									OFFSET 0.000000 0.000000 0.000000
								}
							}
						}
					}
				}
				JOINT RightShoulder
				{
					OFFSET -0.081759 0.118833 -0.038615
					CHANNELS 3 Zrotation Yrotation Xrotation
					JOINT RightArm
					{
						OFFSET -0.096012 0.032551 -0.009143
						CHANNELS 3 Zrotation Yrotation Xrotation
						JOINT RightForeArm
						{
							OFFSET -0.253742 -0.013329 -0.021401
							CHANNELS 3 Zrotation Yrotation Xrotation
							JOINT RightHand
							{
								OFFSET -0.255298 0.007772 -0.005559
								CHANNELS 3 Zrotation Yrotation Xrotation
								End Site
								{
									OFFSET 0.000000 0.000000 0.000000
								}
							}
						}
					}
				}
			}
		}
	}
}
MOTION
Frames: 14
Frame Time: 0.050000
-0.040128 0.894158 0.035297 -3.063784 7.315717 -7.870549 12.148057 -0.220398 0.055510 -8.223192 1.115935 26.427402 8.438611 16.657775 -0.659697 0.000000 0.000000 0.000000 -2.607436 0.715968 -10.095625 5.167449 -1.818197 32.263105 -4.808134 -12.041777 -0.267974 0.000000 0.000000 0.000000 8.962421 -1.144265 9.886476 -4.540898 2.089025 -17.563186 -4.374524 5.399541 28.050163 13.571840 -7.566338 -15.695082 0.000000 0.000000 0.000000 -4.355016 -30.246234 10.083359 -20.728682 -41.488998 1.647392 96.804105 -62.218875 -67.881269 0.000000 0.000000 0.000000 10.875681 5.851597 3.671266 12.534779 15.508154 -1.481449 -67.279874 25.852251 -12.620224 0.000000 0.000000 0.000000
-0.041068 0.896487 0.035783 -3.029228 8.466062 -7.709955 12.198725 -0.260619 -0.275204 -8.008898 0.938764 26.169849 7.881745 15.613505 -0.196329 0.000000 0.000000 0.000000 -2.775867 0.651644 -9.582859 5.518247 -2.066477 31.251504 -5.088639 -12.815412 0.283426 0.000000 0.000000 0.000000 8.735732 -1.171566 10.080180 -4.380806 2.069323 -17.511115 -4.636797 5.452888 27.951873 13.747791 -7.217078 -16.975161 0.000000 0.000000 0.000000 -3.971260 -30.316074 9.975152 -20.624511 -42.751264 1.691896 98.315108 -62.274949 -69.625185 0.000000 0.000000 0.000000 10.831707 5.252174 3.483538 12.735642 14.663322 -1.550275 -65.071745 26.570436 -12.328575 0.000000 0.000000 0.000000
-0.042271 0.900056 0.036207 -3.032222 9.229389 -7.253626 12.156720 -0.292150 -0.610239 -7.657792 0.771878 25.460503 7.417072 14.879484 0.629994 0.000000 0.000000 0.000000 -2.622818 0.652325 -9.447637 5.477916 -2.079478 30.204487 -5.276738 -13.353575 1.238498 0.000000 0.000000 0.000000 8.437739 -1.164785 10.045974 -4.544673 2.134042 -17.418427 -4.562134 5.336049 27.435138 13.468557 -6.707273 -17.751568 0.000000 0.000000 0.000000 -3.902321 -30.192143 9.890730 -19.809436 -43.671354 1.556118 98.785406 -61.988711 -69.925354 0.000000 0.000000 0.000000 10.823077 5.082622 3.448659 12.968371 14.193445 -1.585391 -64.066736 27.056174 -12.247268 0.000000 0.000000 0.000000
-0.043158 0.904663 0.036800 -2.955267 10.153572 -6.655521 12.063035 -0.330945 -0.805492 -7.357205 0.634991 24.194433 6.814041 13.952837 1.566015 0.000000 0.000000 0.000000 -2.548329 0.619583 -8.931504 5.434248 -2.031424 28.297011 -5.514551 -13.973521 2.147010 0.000000 0.000000 0.000000 8.131159 -1.160497 10.017131 -4.744593 2.185010 -18.246927 -4.588490 5.488026 27.470337 13.892461 -6.609622 -18.828901 0.000000 0.000000 0.000000 -3.286439 -30.261541 9.772225 -19.380923 -44.486102 1.413504 100.359336 -61.394333 -71.097206 0.000000 0.000000 0.000000 10.651105 4.385288 3.190264 13.477951 14.244421 -1.623260 -63.005585 26.969139 -11.679889 0.000000 0.000000 0.000000
-0.043060 0.911625 0.037746 -2.848575 10.399559 -6.044724 11.742618 -0.350293 -0.366644 -6.968745 0.562340 22.095338 6.300109 13.442248 3.239741 0.000000 0.000000 0.000000 -2.487919 0.588754 -8.353073 5.232354 -1.816003 26.132846 -5.456863 -13.899429 3.844015 0.000000 0.000000 0.000000 7.910314 -1.107886 9.634929 -5.202466 2.303027 -18.622348 -4.361455 5.693611 27.379850 14.118809 -6.495021 -19.577596 0.000000 0.000000 0.000000 -3.134955 -29.892688 9.605305 -19.448481 -45.062824 1.435263 100.646541 -61.016738 -71.104412 0.000000 0.000000 0.000000 10.081815 4.434386 3.173587 14.198550 13.956728 -1.665101 -62.584347 26.552422 -11.119006 0.000000 0.000000 0.000000
-0.041563 0.921047 0.038785 -2.578047 10.314012 -4.894312 10.976029 -0.347400 0.078240 -6.495841 0.508905 19.631627 5.762196 12.856825 4.594694 0.000000 0.000000 0.000000 -2.449914 0.542240 -7.492575 4.629265 -1.345008 22.457540 -5.238874 -13.493463 5.825796 0.000000 0.000000 0.000000 7.864099 -1.027333 8.838959 -5.603357 2.367195 -19.469230 -4.330807 6.308841 27.153112 14.181172 -6.174224 -20.422175 0.000000 0.000000 0.000000 -2.937363 -29.466923 9.409585 -20.614835 -44.557262 1.678555 101.437312 -60.812964 -71.896424 0.000000 0.000000 0.000000 9.028069 3.707681 2.732414 15.852187 13.883753 -1.710340 -62.542955 27.835184 -11.409478 0.000000 0.000000 0.000000
-0.039275 0.931325 0.039620 -2.389969 9.978840 -3.883412 10.191045 -0.327971 0.499414 -6.165642 0.494673 17.545805 5.520521 12.877105 6.267458 0.000000 0.000000 0.000000 -2.599732 0.496522 -6.853545 4.021214 -0.983584 19.850342 -4.177410 -11.348998 7.508270 0.000000 0.000000 0.000000 7.822444 -0.940701 8.007981 -5.663192 2.331342 -20.224578 -4.379874 6.800638 27.199044 14.569411 -6.280121 -20.774174 0.000000 0.000000 0.000000 -2.144574 -28.516376 9.010104 -22.409791 -43.867073 2.025923 102.533718 -60.669643 -72.976305 0.000000 0.000000 0.000000 7.935928 3.486834 2.490323 16.752424 13.793053 -1.719088 -60.964173 28.429205 -11.121538 0.000000 0.000000 0.000000
-0.037178 0.938684 0.039971 -2.050249 9.083974 -3.007907 9.526283 -0.289265 0.516599 -6.112532 0.555205 15.942045 5.384376 13.293086 9.029489 0.000000 0.000000 0.000000 -2.917959 0.468339 -6.558825 3.592716 -0.713883 17.711590 -3.431049 -10.018304 8.908689 0.000000 0.000000 0.000000 7.739397 -0.872115 7.407264 -5.987048 2.384201 -20.399476 -4.166576 7.206368 26.707636 14.251684 -6.125835 -20.477159 0.000000 0.000000 0.000000 -1.531722 -27.882600 8.781446 -23.472788 -42.870862 2.199924 102.100958 -59.783463 -71.595036 0.000000 0.000000 0.000000 6.939536 3.499681 2.312592 17.344040 13.724932 -1.667837 -60.787506 29.465519 -11.597232 0.000000 0.000000 0.000000
-0.036014 0.940878 0.040038 -2.197257 8.487488 -2.669078 9.410620 -0.276695 0.525025 -6.009187 0.568016 15.129252 5.759271 14.131971 10.344455 0.000000 0.000000 0.000000 -2.847910 0.484107 -6.604238 3.665140 -0.680724 16.918993 -3.244451 -9.774774 9.558282 0.000000 0.000000 0.000000 7.851580 -0.828913 6.941904 -5.773303 2.310526 -20.466826 -4.248400 7.200266 26.553535 14.223193 -6.225263 -20.181022 0.000000 0.000000 0.000000 -0.681980 -26.909169 8.436972 -23.775127 -41.933553 2.134118 101.561602 -58.576094 -69.736282 0.000000 0.000000 0.000000 6.449335 3.429496 2.170769 17.292265 14.226010 -1.568642 -61.072827 30.122849 -12.114508 0.000000 0.000000 0.000000
-0.035717 0.936831 0.039844 -2.215342 8.004059 -3.182583 9.316345 -0.250684 0.580079 -6.061957 0.592599 15.746504 6.656761 15.527970 10.613801 0.000000 0.000000 0.000000 -2.992242 0.489887 -6.823060 4.074549 -0.803711 17.911649 -3.599806 -10.473876 9.023714 0.000000 0.000000 0.000000 7.778777 -0.884837 7.586682 -5.700912 2.287214 -20.537868 -3.793501 6.757488 26.923846 14.176788 -6.307798 -20.301918 0.000000 0.000000 0.000000 -0.507301 -26.711883 8.401299 -22.244014 -40.632814 1.630704 101.556864 -57.168811 -68.025825 0.000000 0.000000 0.000000 6.670314 3.585756 2.210452 16.431676 15.061669 -1.477413 -63.058920 28.959202 -12.233422 0.000000 0.000000 0.000000
-0.036009 0.928006 0.039351 -2.330030 7.507554 -4.462071 9.426156 -0.216913 0.729803 -6.164172 0.620640 17.277742 8.164708 17.795173 10.798298 0.000000 0.000000 0.000000 -2.981995 0.512593 -7.228089 4.373706 -0.955345 20.554928 -4.092648 -11.368744 7.660929 0.000000 0.000000 0.000000 7.657056 -1.012631 9.013835 -5.300381 2.199218 -20.083902 -3.798777 6.540915 26.872236 13.846263 -6.227779 -20.112218 0.000000 0.000000 0.000000 -0.599726 -27.196794 8.571862 -19.500087 -39.401361 0.943113 99.956266 -54.614680 -63.843559 0.000000 0.000000 0.000000 7.294489 4.383369 2.595050 15.646278 15.125965 -1.456682 -66.588784 27.259295 -12.369238 0.000000 0.000000 0.000000
-0.036454 0.918296 0.038486 -2.546471 7.342739 -5.727735 9.572785 -0.193646 0.457100 -5.907433 0.525534 19.667216 9.280562 19.380479 10.112973 0.000000 0.000000 0.000000 -2.720940 0.551612 -7.629351 4.334482 -1.055156 23.741827 -4.368397 -11.676499 5.091034 0.000000 0.000000 0.000000 7.827661 -1.136463 10.153060 -5.128393 2.186217 -19.416787 -3.679535 6.109183 27.135629 13.980810 -6.407003 -20.240071 0.000000 0.000000 0.000000 -0.975702 -27.430023 8.694564 -17.215816 -38.413095 0.419421 99.420980 -53.491838 -62.126479 0.000000 0.000000 0.000000 7.923444 4.461153 2.670394 15.150000 15.997005 -1.406673 -69.787034 25.559973 -12.233038 0.000000 0.000000 0.000000
-0.036966 0.911379 0.037414 -2.641275 7.418823 -6.368579 9.956599 -0.193172 -0.117232 -6.303371 0.586512 21.919771 9.632727 19.776123 8.414041 0.000000 0.000000 0.000000 -2.525409 0.610888 -8.327647 4.209526 -1.122906 26.227048 -4.639475 -12.095945 3.475966 0.000000 0.000000 0.000000 7.936640 -1.205782 10.740632 -4.688792 2.087274 -18.871131 -3.740166 6.005047 27.205967 13.744205 -6.342093 -19.919864 0.000000 0.000000 0.000000 -0.735380 -27.988669 8.836165 -15.861128 -37.784634 0.110867 97.659045 -51.951106 -59.085076 0.000000 0.000000 0.000000 8.299743 4.829415 2.880233 15.091656 16.170337 -1.403712 -71.291770 24.574471 -11.962371 0.000000 0.000000 0.000000
-0.037477 0.908238 0.036414 -2.738283 7.413317 -6.731919 10.108257 -0.189850 -0.265056 -6.327292 0.573755 22.835226 9.817397 19.995958 7.576512 0.000000 0.000000 0.000000 -2.289403 0.663891 -8.819569 4.029619 -1.121452 27.703460 -4.747524 -12.283500 2.977763 0.000000 0.000000 0.000000 7.963138 -1.198395 10.728102 -4.042657 1.915274 -18.222372 -3.927414 5.871066 27.007316 13.980844 -6.585451 -19.690410 0.000000 0.000000 0.000000 -0.950572 -28.165397 8.918432 -15.062660 -36.794954 -0.053986 97.263161 -51.031572 -57.837391 0.000000 0.000000 0.000000 8.708878 5.409176 3.185119 14.470127 16.642102 -1.364276 -71.581698 24.105323 -11.840745 0.000000 0.000000 0.000000
